<?xml version="1.0" standalone="no"?>
<!DOCTYPE svg PUBLIC "-//W3C//DTD SVG 20010904//EN"
 "http://www.w3.org/TR/2001/REC-SVG-20010904/DTD/svg10.dtd">
<svg version="1.0" xmlns="http://www.w3.org/2000/svg"
 width="512.000000pt" height="512.000000pt" viewBox="0 0 512.000000 512.000000"
 preserveAspectRatio="xMidYMid meet">

<g transform="translate(0.000000,512.000000) scale(0.100000,-0.100000)"
fill="#000000" stroke="none">
<path d="M1850 4862 c-56 -29 -80 -88 -80 -194 l0 -88 -283 0 c-307 0 -346 -5
-409 -54 -19 -14 -48 -50 -64 -78 l-29 -53 0 -208 0 -209 28 -24 c34 -29 56
-30 90 -4 l26 21 3 199 3 200 28 27 27 28 290 3 290 3 0 -75 0 -74 -187 -4
c-211 -3 -238 -11 -278 -78 -19 -33 -20 -55 -23 -317 -2 -155 1 -317 6 -361
18 -150 91 -254 219 -314 58 -28 78 -31 182 -36 l117 -5 25 -73 26 -74 -117 0
c-147 0 -216 13 -306 55 -130 63 -233 180 -274 313 -13 41 -23 110 -27 185 -5
98 -10 124 -25 139 -23 23 -70 23 -99 -1 -23 -19 -24 -25 -23 -138 2 -145 20
-229 76 -336 80 -152 224 -276 389 -332 79 -27 97 -29 289 -33 l205 -5 58 -73
c119 -150 323 -279 521 -329 54 -14 116 -25 136 -25 72 0 70 6 70 -176 l0
-163 -37 17 c-31 13 -82 17 -282 20 l-243 4 -71 45 c-351 228 -901 222 -1232
-14 l-40 -28 -245 -5 -245 -5 -68 -33 c-137 -68 -226 -235 -257 -484 -8 -62
-10 -260 -8 -598 l3 -505 27 -57 c37 -79 98 -142 177 -181 59 -29 74 -32 156
-32 137 0 175 23 406 239 l186 174 58 -29 c68 -34 143 -39 221 -12 60 20 146
102 163 156 l13 37 78 0 78 0 26 -55 c31 -63 70 -98 144 -133 71 -32 165 -29
239 9 l49 26 192 -177 c216 -201 261 -230 371 -238 191 -13 366 126 388 308
l6 50 395 0 c271 0 407 4 433 12 51 15 114 69 142 122 21 40 22 51 22 336 0
283 -1 297 -22 335 -12 22 -36 54 -55 72 -60 58 -85 63 -313 63 l-205 0 0 139
c0 132 -1 141 -23 167 -17 19 -33 27 -56 27 -59 0 -65 -17 -71 -181 l-5 -147
-122 -3 -123 -3 0 32 c0 57 -41 233 -71 304 l-29 70 0 242 0 243 175 0 175 0
0 -155 c0 -142 2 -157 20 -175 27 -27 81 -26 106 1 17 18 19 40 22 175 4 175
-7 157 107 169 76 8 251 66 324 107 123 69 245 174 324 279 l28 37 202 4 c184
5 209 7 282 31 187 61 329 186 411 362 61 132 65 177 62 685 -3 448 -3 456
-25 497 -12 22 -39 55 -60 72 -67 55 -105 61 -420 61 l-283 0 0 99 c0 85 -3
102 -23 132 -49 74 43 69 -1257 69 -1108 0 -1167 -1 -1200 -18z m2330 -826 c0
-760 -1 -775 -59 -920 -99 -248 -311 -435 -576 -508 -76 -21 -98 -22 -490 -23
-392 0 -414 1 -490 22 -169 46 -289 117 -407 241 -123 129 -193 267 -223 438
-12 71 -15 207 -15 765 l0 679 1130 0 1130 0 0 -694z m747 374 c22 -13 34 -29
38 -52 3 -18 5 -233 3 -478 l-3 -445 -27 -68 c-69 -171 -213 -296 -385 -332
-55 -12 -303 -22 -303 -12 0 1 11 34 25 72 l24 70 113 6 c62 4 132 14 154 22
101 37 187 119 226 216 22 55 23 64 23 413 0 344 -1 357 -21 384 -49 67 -57
69 -270 72 l-194 4 0 74 0 74 283 0 c262 0 284 -1 314 -20z m-3155 -670 c0
-214 1 -396 2 -402 2 -20 -116 -22 -178 -4 -59 17 -113 64 -139 119 -15 30
-17 77 -17 356 l0 321 165 0 165 0 2 -390z m2896 68 c-3 -293 -5 -326 -22
-358 -47 -89 -106 -122 -228 -128 l-88 -4 0 399 c0 220 3 403 7 406 3 4 80 7
170 7 l164 0 -3 -322z m-3073 -1608 c113 -13 228 -42 305 -78 l60 -27 -68 -73
c-46 -50 -78 -76 -102 -82 -38 -11 -522 -14 -584 -3 -30 5 -52 20 -105 75 -36
38 -67 73 -69 79 -9 23 218 95 343 108 114 12 120 12 220 1z m-605 -290 c122
-128 111 -125 500 -125 391 0 383 -2 504 126 l75 79 268 0 c259 0 270 -1 313
-22 76 -39 136 -151 167 -313 21 -112 13 -342 -16 -443 -37 -127 -98 -220
-159 -243 -13 -5 -135 -9 -273 -9 l-249 0 -14 34 c-22 54 -91 121 -147 145
-137 59 -313 -5 -366 -134 l-18 -45 -82 0 -83 0 -15 38 c-58 137 -243 204
-381 137 -59 -29 -117 -90 -136 -142 l-12 -33 -254 0 c-274 0 -282 1 -333 57
-38 40 -77 122 -101 211 -28 102 -31 362 -6 463 40 156 109 267 181 288 18 5
151 10 296 10 l265 1 76 -80z m2807 -544 l28 -24 0 -272 0 -272 -28 -24 -28
-24 -395 0 -394 0 0 320 0 320 394 0 395 0 28 -24z m-2575 -383 c94 -85 38
-233 -87 -233 -51 0 -92 27 -116 77 -24 49 -19 95 14 137 44 54 140 64 189 19z
m710 0 c92 -83 38 -233 -85 -233 -110 0 -174 134 -104 215 46 53 141 62 189
18z m-1661 -150 c30 -16 67 -19 313 -23 194 -3 281 -8 283 -16 4 -12 -348
-345 -397 -377 -37 -24 -115 -32 -168 -17 -56 15 -123 80 -140 136 -7 26 -12
107 -12 219 l0 178 44 -41 c24 -22 59 -49 77 -59z m2549 -296 c-35 -118 -180
-181 -291 -124 -58 29 -419 366 -412 384 4 10 59 13 272 13 l268 0 59 30 c33
16 71 41 85 56 l24 26 3 -174 c2 -105 -1 -188 -8 -211z"/>
<path d="M540 1710 c-16 -16 -20 -33 -20 -90 l0 -70 -60 0 c-113 0 -163 -56
-110 -123 18 -23 29 -26 93 -29 l72 -3 3 -72 c3 -64 6 -75 29 -93 30 -23 42
-24 77 -9 31 14 46 56 46 125 l0 54 70 0 c58 0 72 3 90 22 25 27 26 69 1 99
-15 19 -30 24 -89 27 l-70 4 -4 70 c-3 59 -8 74 -27 89 -30 25 -76 24 -101 -1z"/>
<path d="M2281 1704 c-16 -21 -21 -41 -21 -89 l0 -63 -70 -4 c-83 -4 -114 -26
-112 -80 1 -50 30 -68 113 -68 l69 0 0 -70 c0 -62 3 -74 25 -95 31 -32 69 -32
100 0 22 21 25 33 25 95 l0 70 69 0 c83 0 112 18 113 68 2 54 -29 76 -112 80
l-70 4 0 63 c0 78 -24 115 -75 115 -24 0 -39 -7 -54 -26z"/>
</g>
</svg>
