<svg width="364" height="148" viewBox="0 0 364 148" fill="none" xmlns="http://www.w3.org/2000/svg">
<path d="M68.6875 16.45C67.6375 17.175 67.1875 18.65 67.1875 21.3V23.5H61.8812C56.125 23.5 55.3937 23.625 54.2125 24.85C53.8562 25.2 53.3125 26.1 53.0125 26.8L52.4687 28.125V33.325V38.55L52.9937 39.15C53.6312 39.875 54.0437 39.9 54.6812 39.25L55.1687 38.725L55.225 33.75L55.2812 28.75L55.8062 28.075L56.3125 27.375L61.75 27.3L67.1875 27.225V29.1V30.95L63.6812 31.05C59.725 31.125 59.2187 31.325 58.4687 33C58.1125 33.825 58.0937 34.375 58.0375 40.925C58 44.8 58.0562 48.85 58.15 49.95C58.4875 53.7 59.8562 56.3 62.2562 57.8C63.3437 58.5 63.7187 58.575 65.6687 58.7L67.8625 58.825L68.3312 60.65L68.8187 62.5H66.625C63.8687 62.5 62.575 62.175 60.8875 61.125C58.45 59.55 56.5187 56.625 55.75 53.3C55.5062 52.275 55.3187 50.55 55.2437 48.675C55.15 46.225 55.0562 45.575 54.775 45.2C54.3437 44.625 53.4625 44.625 52.9187 45.225C52.4875 45.7 52.4687 45.85 52.4875 48.675C52.525 52.3 52.8625 54.4 53.9125 57.075C55.4125 60.875 58.1125 63.975 61.2062 65.375C62.6875 66.05 63.025 66.1 66.625 66.2L70.4687 66.325L71.5562 68.15C73.7875 71.9 77.6125 75.125 81.325 76.375C82.3375 76.725 83.5 77 83.875 77C85.225 77 85.1875 76.85 85.1875 81.4V85.475L84.4937 85.05C83.9125 84.725 82.9562 84.625 79.2062 84.55L74.65 84.45L73.3187 83.325C66.7375 77.625 56.425 77.775 50.2187 83.675L49.4687 84.375L44.875 84.5L40.2812 84.625L39.0062 85.45C36.4375 87.15 34.7687 91.325 34.1875 97.55C34.0375 99.1 34 104.05 34.0375 112.5L34.0937 125.125L34.6 126.55C35.2937 128.525 36.4375 130.1 37.9187 131.075C39.025 131.8 39.3062 131.875 40.8437 131.875C43.4125 131.875 44.125 131.3 48.4562 125.9L51.9437 121.55L53.0312 122.275C54.3062 123.125 55.7125 123.25 57.175 122.575C58.3 122.075 59.9125 120.025 60.2312 118.675L60.475 117.75H61.9375H63.4L63.8875 119.125C64.4687 120.7 65.2 121.575 66.5875 122.45C67.9187 123.25 69.6812 123.175 71.0687 122.225L71.9875 121.575L75.5875 126C79.6375 131.025 80.4812 131.75 82.5437 131.95C86.125 132.275 89.4062 128.8 89.8187 124.25L89.9312 123H97.3375C102.419 123 104.969 122.9 105.456 122.7C106.412 122.325 107.594 120.975 108.119 119.65C108.512 118.65 108.531 118.375 108.531 111.25C108.531 104.175 108.512 103.825 108.119 102.875C107.894 102.325 107.444 101.525 107.087 101.075C105.962 99.625 105.494 99.5 101.219 99.5H97.375V96.025C97.375 92.725 97.3562 92.5 96.9437 91.85C96.625 91.375 96.325 91.175 95.8937 91.175C94.7875 91.175 94.675 91.6 94.5625 95.7L94.4687 99.375L92.1812 99.45L89.875 99.525V98.725C89.875 97.3 89.1062 92.9 88.5437 91.125L88 89.375V83.325V77.25H91.2812H94.5625V81.125C94.5625 84.675 94.6 85.05 94.9375 85.5C95.4437 86.175 96.4562 86.15 96.925 85.475C97.2437 85.025 97.2812 84.475 97.3375 81.1C97.4125 76.725 97.2062 77.175 99.3437 76.875C100.769 76.675 104.05 75.225 105.419 74.2C107.725 72.475 110.012 69.85 111.494 67.225L112.019 66.3L115.806 66.2C119.256 66.075 119.725 66.025 121.094 65.425C124.6 63.9 127.262 60.775 128.8 56.375C129.944 53.075 130.019 51.95 129.962 39.25C129.906 28.05 129.906 27.85 129.494 26.825C129.269 26.275 128.762 25.45 128.369 25.025C127.112 23.65 126.4 23.5 120.494 23.5H115.187V21.025C115.187 18.9 115.131 18.475 114.756 17.725C113.837 15.875 115.562 16 91.1875 16C70.4125 16 69.3062 16.025 68.6875 16.45ZM112.375 37.1C112.375 56.1 112.356 56.475 111.269 60.1C109.412 66.3 105.437 70.975 100.469 72.8C99.0437 73.325 98.6312 73.35 91.2812 73.375C83.9312 73.375 83.5187 73.35 82.0937 72.825C78.925 71.675 76.675 69.9 74.4625 66.8C72.1562 63.575 70.8437 60.125 70.2812 55.85C70.0562 54.075 70 50.675 70 36.725V19.75H91.1875H112.375V37.1ZM126.381 27.75C126.794 28.075 127.019 28.475 127.094 29.05C127.15 29.5 127.187 34.875 127.15 41L127.094 52.125L126.587 53.825C125.294 58.1 122.594 61.225 119.369 62.125C118.337 62.425 113.687 62.675 113.687 62.425C113.687 62.4 113.894 61.575 114.156 60.625L114.606 58.875L116.725 58.725C117.887 58.625 119.2 58.375 119.612 58.175C121.506 57.25 123.119 55.2 123.85 52.775C124.262 51.4 124.281 51.175 124.281 42.45C124.281 33.85 124.262 33.525 123.887 32.85C122.969 31.175 122.819 31.125 118.825 31.05L115.187 30.95V29.1V27.25H120.494C125.406 27.25 125.819 27.275 126.381 27.75ZM67.225 44.5C67.225 49.85 67.2437 54.4 67.2625 54.55C67.3 55.05 65.0875 55.1 63.925 54.65C62.8187 54.225 61.8062 53.05 61.3187 51.675C61.0375 50.925 61 49.75 61 42.775V34.75H64.0937H67.1875L67.225 44.5ZM121.525 42.8C121.469 50.125 121.431 50.95 121.112 51.75C120.231 53.975 119.125 54.8 116.837 54.95L115.187 55.05V45.075C115.187 39.575 115.244 35 115.319 34.925C115.375 34.825 116.819 34.75 118.506 34.75H121.581L121.525 42.8ZM63.9062 83C66.025 83.325 68.1812 84.05 69.625 84.95L70.75 85.625L69.475 87.45C68.6125 88.7 68.0125 89.35 67.5625 89.5C66.85 89.775 57.775 89.85 56.6125 89.575C56.05 89.45 55.6375 89.075 54.6437 87.7C53.9687 86.75 53.3875 85.875 53.35 85.725C53.1812 85.15 57.4375 83.35 59.7812 83.025C61.9187 82.725 62.0312 82.725 63.9062 83ZM52.5625 90.25C54.85 93.45 54.6437 93.375 61.9375 93.375C69.2687 93.375 69.1187 93.425 71.3875 90.225L72.7937 88.25H77.8187C82.675 88.25 82.8812 88.275 83.6875 88.8C85.1125 89.775 86.2375 92.575 86.8187 96.625C87.2125 99.425 87.0625 105.175 86.5187 107.7C85.825 110.875 84.6812 113.2 83.5375 113.775C83.2937 113.9 81.0062 114 78.4187 114H73.75L73.4875 113.15C73.075 111.8 71.7812 110.125 70.7312 109.525C68.1625 108.05 64.8625 109.65 63.8687 112.875L63.5312 114H61.9937H60.4375L60.1562 113.05C59.0687 109.625 55.6 107.95 53.0125 109.625C51.9062 110.35 50.8187 111.875 50.4625 113.175L50.2375 114H45.475C40.3375 114 40.1875 113.975 39.2312 112.575C38.5187 111.575 37.7875 109.525 37.3375 107.3C36.8125 104.75 36.7562 98.25 37.225 95.725C37.975 91.825 39.2687 89.05 40.6187 88.525C40.9562 88.4 43.45 88.275 46.1687 88.275L51.1375 88.25L52.5625 90.25ZM105.194 103.85L105.719 104.45V111.25V118.05L105.194 118.65L104.669 119.25H97.2625H89.875V111.25V103.25H97.2625H104.669L105.194 103.85ZM56.9125 113.425C58.675 115.55 57.625 119.25 55.2812 119.25C54.325 119.25 53.5562 118.575 53.1062 117.325C52.6562 116.1 52.75 114.95 53.3687 113.9C54.1937 112.55 55.9937 112.3 56.9125 113.425ZM70.225 113.425C71.95 115.5 70.9375 119.25 68.6312 119.25C66.5687 119.25 65.3687 115.9 66.6812 113.875C67.5437 112.55 69.325 112.325 70.225 113.425ZM39.0812 117.175C39.6437 117.575 40.3375 117.65 44.95 117.75C48.5875 117.825 50.2187 117.95 50.2562 118.15C50.3312 118.45 43.7312 126.775 42.8125 127.575C42.1187 128.175 40.6562 128.375 39.6625 128C38.6125 127.625 37.3562 126 37.0375 124.6C36.9062 123.95 36.8125 121.925 36.8125 119.125V114.675L37.6375 115.7C38.0875 116.25 38.7437 116.925 39.0812 117.175ZM86.875 124.575C86.2187 127.525 83.5 129.1 81.4187 127.675C80.3312 126.95 73.5625 118.525 73.6937 118.075C73.7687 117.825 74.8 117.75 78.7937 117.75H83.8187L84.925 117C85.5437 116.6 86.2562 115.975 86.5187 115.6L86.9687 114.95L87.025 119.3C87.0625 121.925 87.0062 124 86.875 124.575Z" fill="#5E0324"/>
<path d="M44.125 95.25C43.825 95.65 43.75 96.075 43.75 97.5V99.25H42.625C40.5062 99.25 39.5687 100.65 40.5625 102.325C40.9 102.9 41.1062 102.975 42.3062 103.05L43.6562 103.125L43.7125 104.925C43.7687 106.525 43.825 106.8 44.2562 107.25C44.8187 107.825 45.0437 107.85 45.7 107.475C46.2812 107.125 46.5625 106.075 46.5625 104.35V103H47.875C48.9625 103 49.225 102.925 49.5625 102.45C50.0312 101.775 50.05 100.725 49.5812 99.975C49.3 99.5 49.0187 99.375 47.9125 99.3L46.6 99.2L46.525 97.45C46.4687 95.975 46.375 95.6 46.0187 95.225C45.4562 94.6 44.5937 94.625 44.125 95.25Z" fill="#5E0324"/>
<path d="M76.7687 95.4C76.4687 95.925 76.375 96.425 76.375 97.625V99.2L75.0625 99.3C73.5062 99.4 72.925 99.95 72.9625 101.3C72.9812 102.55 73.525 103 75.0812 103H76.375V104.75C76.375 106.3 76.4312 106.6 76.8437 107.125C77.425 107.925 78.1375 107.925 78.7187 107.125C79.1312 106.6 79.1875 106.3 79.1875 104.75V103H80.4812C82.0375 103 82.5812 102.55 82.6 101.3C82.6375 99.95 82.0562 99.4 80.5 99.3L79.1875 99.2V97.625C79.1875 95.675 78.7375 94.75 77.7812 94.75C77.3312 94.75 77.05 94.925 76.7687 95.4Z" fill="#5E0324"/>
<path d="M202.92 65H176.68L189.8 36.56L202.92 65ZM179 63.52H200.6L189.8 40.08L179 63.52ZM210.809 65V37.16H212.289V63.52H231.689V65H210.809ZM237.779 37.16H239.259V54.36C239.259 56.12 239.699 57.7467 240.579 59.24C241.459 60.7333 242.645 61.92 244.139 62.8C245.632 63.68 247.259 64.12 249.019 64.12C250.779 64.12 252.405 63.68 253.899 62.8C255.392 61.92 256.579 60.7333 257.459 59.24C258.339 57.7467 258.779 56.12 258.779 54.36V37.16H260.259V54.36C260.259 56.3867 259.752 58.2667 258.739 60C257.725 61.7067 256.352 63.0667 254.619 64.08C252.912 65.0933 251.045 65.6 249.019 65.6C246.992 65.6 245.112 65.0933 243.379 64.08C241.672 63.0667 240.312 61.7067 239.299 60C238.285 58.2667 237.779 56.3867 237.779 54.36V37.16ZM284.668 38.08C286.268 38.8267 287.521 39.9333 288.428 41.4C289.361 42.8667 289.828 44.4933 289.828 46.28C289.828 48.36 289.188 50.2267 287.908 51.88C286.655 53.5067 285.041 54.5867 283.068 55.12L290.148 65H288.388L281.548 55.4L280.268 55.44H270.228V65H268.748V37.16H279.348C280.521 37.16 281.521 37.24 282.348 37.4C283.201 37.5333 283.975 37.76 284.668 38.08ZM280.668 53.96C282.055 53.96 283.335 53.6133 284.508 52.92C285.681 52.2267 286.615 51.2933 287.308 50.12C288.001 48.9467 288.348 47.6667 288.348 46.28C288.348 44.7333 287.935 43.3333 287.108 42.08C286.308 40.8267 285.188 39.8933 283.748 39.28C282.708 38.8533 281.241 38.64 279.348 38.64H270.228V53.96H280.668ZM307.478 37.16H309.038L320.478 65H318.878L315.118 55.8H301.398L297.598 65H296.038L307.478 37.16ZM301.998 54.36H314.518L308.238 39.08L301.998 54.36Z" fill="#7B7893"/>
<path d="M177.098 94.8789C177.098 95.582 176.974 96.3438 176.727 97.1641C176.479 97.9714 176.076 98.7266 175.516 99.4297C174.969 100.12 174.246 100.699 173.348 101.168C172.462 101.637 171.382 101.871 170.105 101.871H160.945V97.0469H170.105C170.796 97.0469 171.329 96.8385 171.707 96.4219C172.085 95.9922 172.273 95.4648 172.273 94.8398C172.273 94.1758 172.059 93.6549 171.629 93.2773C171.212 92.8997 170.704 92.7109 170.105 92.7109H160.945C160.255 92.7109 159.721 92.9258 159.344 93.3555C158.966 93.7721 158.777 94.293 158.777 94.918V102.008C158.777 102.685 158.986 103.212 159.402 103.59C159.832 103.967 160.359 104.156 160.984 104.156H170.105V109H160.945C160.242 109 159.48 108.876 158.66 108.629C157.853 108.382 157.098 107.984 156.395 107.438C155.704 106.878 155.125 106.155 154.656 105.27C154.188 104.371 153.953 103.284 153.953 102.008V94.8789C153.953 94.1758 154.077 93.4206 154.324 92.6133C154.572 91.793 154.969 91.0378 155.516 90.3477C156.076 89.6445 156.798 89.0586 157.684 88.5898C158.582 88.1211 159.669 87.8867 160.945 87.8867H170.105C170.809 87.8867 171.564 88.0104 172.371 88.2578C173.191 88.5052 173.947 88.9089 174.637 89.4688C175.34 90.0156 175.926 90.7383 176.395 91.6367C176.863 92.5221 177.098 93.6029 177.098 94.8789ZM198.719 97.2812H180.398V92.7109H198.719V97.2812ZM223.777 101.871C223.777 102.743 223.667 103.531 223.445 104.234C223.224 104.924 222.931 105.536 222.566 106.07C222.202 106.591 221.779 107.04 221.297 107.418C220.815 107.783 220.307 108.082 219.773 108.316C219.253 108.551 218.719 108.727 218.172 108.844C217.638 108.948 217.13 109 216.648 109H202.898V103.922H216.609C217.299 103.922 217.82 103.746 218.172 103.395C218.523 103.043 218.699 102.535 218.699 101.871C218.634 100.517 217.951 99.8398 216.648 99.8398H208.777C207.658 99.8398 206.707 99.6445 205.926 99.2539C205.145 98.8633 204.507 98.375 204.012 97.7891C203.53 97.2031 203.178 96.5716 202.957 95.8945C202.749 95.2174 202.645 94.5859 202.645 94C202.645 92.8672 202.846 91.9167 203.25 91.1484C203.654 90.3672 204.161 89.7357 204.773 89.2539C205.385 88.7721 206.049 88.4271 206.766 88.2188C207.482 87.9974 208.152 87.8867 208.777 87.8867H221.258V92.9648H208.816C208.556 92.9648 208.348 92.9974 208.191 93.0625C208.048 93.1146 207.938 93.1927 207.859 93.2969C207.794 93.388 207.755 93.4922 207.742 93.6094C207.729 93.7135 207.723 93.8177 207.723 93.9219C207.736 94.1302 207.775 94.293 207.84 94.4102C207.905 94.5273 207.983 94.612 208.074 94.6641C208.178 94.7161 208.289 94.7487 208.406 94.7617C208.536 94.7617 208.66 94.7617 208.777 94.7617H216.648C217.951 94.7617 219.057 94.9961 219.969 95.4648C220.88 95.9336 221.616 96.526 222.176 97.2422C222.736 97.9453 223.139 98.7135 223.387 99.5469C223.647 100.38 223.777 101.155 223.777 101.871ZM250.633 101.871C250.633 102.743 250.522 103.531 250.301 104.234C250.079 104.924 249.786 105.536 249.422 106.07C249.057 106.591 248.634 107.04 248.152 107.418C247.671 107.783 247.163 108.082 246.629 108.316C246.108 108.551 245.581 108.727 245.047 108.844C244.513 108.948 244.005 109 243.523 109H234.363V103.922H243.523C244.201 103.922 244.708 103.746 245.047 103.395C245.385 103.043 245.555 102.535 245.555 101.871V95.0352C245.555 94.332 245.379 93.8112 245.027 93.4727C244.689 93.1341 244.188 92.9648 243.523 92.9648H234.402C233.712 92.9648 233.191 93.1406 232.84 93.4922C232.488 93.8307 232.312 94.332 232.312 94.9961V115.602H227.234V94.9961C227.234 94.1237 227.345 93.3424 227.566 92.6523C227.788 91.9622 228.081 91.3568 228.445 90.8359C228.823 90.3021 229.253 89.8529 229.734 89.4883C230.216 89.1107 230.717 88.8047 231.238 88.5703C231.772 88.3359 232.306 88.1667 232.84 88.0625C233.387 87.9453 233.895 87.8867 234.363 87.8867H243.523C244.396 87.8867 245.177 87.9974 245.867 88.2188C246.557 88.4401 247.163 88.7331 247.684 89.0977C248.217 89.4622 248.667 89.8854 249.031 90.3672C249.409 90.849 249.715 91.3568 249.949 91.8906C250.184 92.4115 250.353 92.9388 250.457 93.4727C250.574 94.0065 250.633 94.5143 250.633 94.9961V101.871ZM277.938 101.871C277.938 102.743 277.827 103.531 277.605 104.234C277.384 104.924 277.091 105.536 276.727 106.07C276.362 106.591 275.939 107.04 275.457 107.418C274.975 107.783 274.467 108.082 273.934 108.316C273.413 108.551 272.879 108.727 272.332 108.844C271.798 108.948 271.29 109 270.809 109H261.648C260.945 109 260.177 108.876 259.344 108.629C258.51 108.382 257.736 107.978 257.02 107.418C256.316 106.845 255.724 106.109 255.242 105.211C254.773 104.299 254.539 103.186 254.539 101.871V94.9961C254.539 93.694 254.773 92.5938 255.242 91.6953C255.724 90.7839 256.316 90.0482 257.02 89.4883C257.736 88.9154 258.51 88.5052 259.344 88.2578C260.177 88.0104 260.945 87.8867 261.648 87.8867H270.809C272.111 87.8867 273.217 88.1211 274.129 88.5898C275.04 89.0586 275.776 89.651 276.336 90.3672C276.896 91.0703 277.299 91.8385 277.547 92.6719C277.807 93.5052 277.938 94.2799 277.938 94.9961V101.871ZM272.859 95.0352C272.859 94.332 272.684 93.8112 272.332 93.4727C271.98 93.1341 271.473 92.9648 270.809 92.9648H261.688C261.01 92.9648 260.496 93.1406 260.145 93.4922C259.793 93.8307 259.617 94.332 259.617 94.9961V101.871C259.617 102.535 259.793 103.043 260.145 103.395C260.496 103.746 261.01 103.922 261.688 103.922H270.809C271.499 103.922 272.013 103.746 272.352 103.395C272.69 103.043 272.859 102.535 272.859 101.871V95.0352ZM300.75 92.9648H289.324C288.634 92.9648 288.113 93.1406 287.762 93.4922C287.41 93.8307 287.234 94.332 287.234 94.9961V109H282.156V94.9961C282.156 94.1237 282.267 93.3424 282.488 92.6523C282.71 91.9622 283.003 91.3568 283.367 90.8359C283.745 90.3021 284.174 89.8529 284.656 89.4883C285.138 89.1107 285.639 88.8047 286.16 88.5703C286.694 88.3359 287.228 88.1667 287.762 88.0625C288.309 87.9453 288.816 87.8867 289.285 87.8867H300.75V92.9648ZM323.309 92.9648H314.441V109H309.305V92.9648H302.703V87.8867H309.305V80.9922H314.441V87.8867H323.309V92.9648ZM347.059 101.871C347.059 102.743 346.948 103.531 346.727 104.234C346.505 104.924 346.212 105.536 345.848 106.07C345.483 106.591 345.06 107.04 344.578 107.418C344.096 107.783 343.589 108.082 343.055 108.316C342.534 108.551 342 108.727 341.453 108.844C340.919 108.948 340.411 109 339.93 109H326.18V103.922H339.891C340.581 103.922 341.102 103.746 341.453 103.395C341.805 103.043 341.98 102.535 341.98 101.871C341.915 100.517 341.232 99.8398 339.93 99.8398H332.059C330.939 99.8398 329.988 99.6445 329.207 99.2539C328.426 98.8633 327.788 98.375 327.293 97.7891C326.811 97.2031 326.46 96.5716 326.238 95.8945C326.03 95.2174 325.926 94.5859 325.926 94C325.926 92.8672 326.128 91.9167 326.531 91.1484C326.935 90.3672 327.443 89.7357 328.055 89.2539C328.667 88.7721 329.331 88.4271 330.047 88.2188C330.763 87.9974 331.434 87.8867 332.059 87.8867H344.539V92.9648H332.098C331.837 92.9648 331.629 92.9974 331.473 93.0625C331.329 93.1146 331.219 93.1927 331.141 93.2969C331.076 93.388 331.036 93.4922 331.023 93.6094C331.01 93.7135 331.004 93.8177 331.004 93.9219C331.017 94.1302 331.056 94.293 331.121 94.4102C331.186 94.5273 331.264 94.612 331.355 94.6641C331.46 94.7161 331.57 94.7487 331.688 94.7617C331.818 94.7617 331.941 94.7617 332.059 94.7617H339.93C341.232 94.7617 342.339 94.9961 343.25 95.4648C344.161 95.9336 344.897 96.526 345.457 97.2422C346.017 97.9453 346.421 98.7135 346.668 99.5469C346.928 100.38 347.059 101.155 347.059 101.871Z" fill="#692764"/>
</svg>
